{"title":"2 States 2014 Hindi Movies SCamRip with Sample ~ â˜»rDXâ˜»","uid":9988839,"size":735775684,"categoryP":"video","categoryS":"movies","magnet":"?xt=urn:btih:4e0a52c63a2e3b6758aa33571ef902064017ffc8&amp;dn=2+States+2014+Hindi+Movies+SCamRip+with+Sample+%7E+%E2%98%BBrDX%E2%98%BB&amp;tr=udp%3A%2F%2Ftracker.openbittorrent.com%3A80&amp;tr=udp%3A%2F%2Fopen.demonii.com%3A1337&amp;tr=udp%3A%2F%2Ftracker.coppersurfer.tk%3A6969&amp;tr=udp%3A%2F%2Fexodus.desync.com%3A6969","seeders":7,"leechers":3,"uploader":"basicssom","files":2,"time":1397782217,"description":"---------------------------------------------------------------- &lt;a href=&quot;\nhttp://s5.postimg.org/hgeuxszk7/logo.png&quot; rel=&quot;nofollow&quot; target=&quot;_NEW&quot;&gt;\nhttp://s5.postimg.org/hgeuxszk7/logo.png&lt;/a&gt;\n\n2 States 2014 Hindi Movies SCamRip with Sample ~ â˜»rDXâ˜»\n\nPlease check SCREEN SHOTS first :\n &lt;a href=&quot;\nhttp://moviesreview.co.nr/2014/4/2States/1.html&quot; rel=&quot;nofollow&quot; target=&quot;_NEW&quot;&gt;\nhttp://moviesreview.co.nr/2014/4/2States/1.html&lt;/a&gt; &lt;a href=&quot;\nhttp://moviesreview.co.nr/2014/4/2States/2.html&quot; rel=&quot;nofollow&quot; target=&quot;_NEW&quot;&gt;\nhttp://moviesreview.co.nr/2014/4/2States/2.html&lt;/a&gt; &lt;a href=&quot;\nhttp://moviesreview.co.nr/2014/4/2States/3.html&quot; rel=&quot;nofollow&quot; target=&quot;_NEW&quot;&gt;\nhttp://moviesreview.co.nr/2014/4/2States/3.html&lt;/a&gt; &lt;a href=&quot;\nhttp://moviesreview.co.nr/2014/4/2States/4.html&quot; rel=&quot;nofollow&quot; target=&quot;_NEW&quot;&gt;\nhttp://moviesreview.co.nr/2014/4/2States/4.html&lt;/a&gt; &lt;a href=&quot;\nhttp://moviesreview.co.nr/2014/4/2States/5.html&quot; rel=&quot;nofollow&quot; target=&quot;_NEW&quot;&gt;\nhttp://moviesreview.co.nr/2014/4/2States/5.html&lt;/a&gt; &lt;a href=&quot;\nhttp://moviesreview.co.nr/2014/4/2States/6.html&quot; rel=&quot;nofollow&quot; target=&quot;_NEW&quot;&gt;\nhttp://moviesreview.co.nr/2014/4/2States/6.html&lt;/a&gt; &lt;a href=&quot;\nhttp://moviesreview.co.nr/2014/4/2States/7.html&quot; rel=&quot;nofollow&quot; target=&quot;_NEW&quot;&gt;\nhttp://moviesreview.co.nr/2014/4/2States/7.html&lt;/a&gt; &lt;a href=&quot;\nhttp://moviesreview.co.nr/2014/4/2States/8.html&quot; rel=&quot;nofollow&quot; target=&quot;_NEW&quot;&gt;\nhttp://moviesreview.co.nr/2014/4/2States/8.html&lt;/a&gt; &lt;a href=&quot;\nhttp://moviesreview.co.nr/2014/4/2States/9.html&quot; rel=&quot;nofollow&quot; target=&quot;_NEW&quot;&gt;\nhttp://moviesreview.co.nr/2014/4/2States/9.html&lt;/a&gt; &lt;a href=&quot;\nhttp://moviesreview.co.nr/2014/4/2States/10.html&quot; rel=&quot;nofollow&quot; target=&quot;_NEW&quot;&gt;\nhttp://moviesreview.co.nr/2014/4/2States/10.html&lt;/a&gt;\n\nAll rDX torrents are Seeding From the 1Gbps Seedbox 24X7\n\nPOSTER:\n &lt;a href=&quot;\nhttp://istoreimg.com/upload/big/2014/04/18/5350f7a9e80a9.jpg&quot; rel=&quot;nofollow&quot; target=&quot;_NEW&quot;&gt;\nhttp://istoreimg.com/upload/big/2014/04/18/5350f7a9e80a9.jpg&lt;/a&gt;\n\nIMDB: http://www.imdb.com/title/tt2372678/\n\nFormat                                   : Matroska\nFormat version                           : Version 4 / Version 2\nFile size                                : 687 MiB\nDuration                                 : 2h 11mn\nOverall bit rate mode                    : Variable\nOverall bit rate                         : 728 Kbps\nMovie name                               : 2 States 2014 Hindi Movies SCamRip ~ rDX ~\n\nVideo\nID                                       : 1\nFormat                                   : MPEG Video\nFormat version                           : Version 2\nFormat profile                           : Main@Main\nFormat settings, BVOP                    : No\nFormat settings, Matrix                  : Default\nCodec ID                                 : V_MPEG2\nCodec ID/Info                            : MPEG 1 or 2 Video\nDuration                                 : 2h 11mn\nBit rate mode                            : Variable\nBit rate                                 : 585 Kbps\nMaximum bit rate                         : 9 672 Kbps\nWidth                                    : 352 pixels\nHeight                                   : 288 pixels\nDisplay aspect ratio                     : 4:3\nFrame rate mode                          : Constant\nFrame rate                               : 25.000 fps\nStandard                                 : PAL\nColor space                              : YUV\nChroma subsampling                       : 4:2:0\nBit depth                                : 8 bits\nScan type                                : Progressive\nCompression mode                         : Lossy\nBits/(Pixel*Frame)                       : 0.231\nStream size                              : 552 MiB (80%)\nTitle                                    : ~ rDX ~\nDefault                                  : Yes\nForced                                   : No\n\nAudio\nID                                       : 2\nFormat                                   : MPEG Audio\nFormat version                           : Version 1\nFormat profile                           : Layer 2\nCodec ID                                 : A_MPEG/L2\nCodec ID/Hint                            : MP2\nDuration                                 : 2h 11mn\nBit rate mode                            : Constant\nBit rate                                 : 128 Kbps\nChannel(s)                               : 2 channels\nSampling rate                            : 48.0 KHz\nCompression mode                         : Lossy\nStream size                              : 121 MiB (18%)\nTitle                                    : ~ rDX ~\nDefault                                  : Yes\nForced                                   : No","torrent":{"xt":"urn:btih:4e0a52c63a2e3b6758aa33571ef902064017ffc8","amp;dn":"2+States+2014+Hindi+Movies+SCamRip+with+Sample+%7E+%E2%98%BBrDX%E2%98%BB","amp;tr":["udp%3A%2F%2Ftracker.openbittorrent.com%3A80","udp%3A%2F%2Fopen.demonii.com%3A1337","udp%3A%2F%2Ftracker.coppersurfer.tk%3A6969","udp%3A%2F%2Fexodus.desync.com%3A6969"],"infoHash":"4e0a52c63a2e3b6758aa33571ef902064017ffc8","infoHashBuffer":{"type":"Buffer","data":[78,10,82,198,58,46,59,103,88,170,51,87,30,249,2,6,64,23,255,200]},"announce":[],"urlList":[]}}